<svg width="41" height="52" viewBox="0 0 41 52" fill="none" xmlns="http://www.w3.org/2000/svg">
<g id="upload_file_24dp_FFD8CD_FILL0_wght200_GRAD0_opsz24 1" clip-path="url(#clip0_32_151)">
<path id="Vector" d="M19.0625 42.0866H21.9375V28.5906L27.975 34.6281L30.0098 32.5768L20.5 23.067L10.9902 32.5768L13.0415 34.6116L19.0625 28.5906V42.0866ZM5.01956 51.375C3.6961 51.375 2.59115 50.9318 1.70469 50.0453C0.818229 49.1589 0.375 48.0539 0.375 46.7304V4.26956C0.375 2.9461 0.818229 1.84115 1.70469 0.954687C2.59115 0.0682292 3.6961 -0.375 5.01956 -0.375H27.6875L40.625 12.5625V46.7304C40.625 48.0539 40.1818 49.1589 39.2953 50.0453C38.4089 50.9318 37.3039 51.375 35.9804 51.375H5.01956ZM26.25 14V2.5H5.01956C4.57681 2.5 4.1712 2.68424 3.80272 3.05272C3.43424 3.4212 3.25 3.82681 3.25 4.26956V46.7304C3.25 47.1732 3.43424 47.5788 3.80272 47.9473C4.1712 48.3158 4.57681 48.5 5.01956 48.5H35.9804C36.4232 48.5 36.8288 48.3158 37.1973 47.9473C37.5658 47.5788 37.75 47.1732 37.75 46.7304V14H26.25Z" fill="#80771E"/>
</g>
<defs>
<clipPath id="clip0_32_151">
<rect width="41" height="51" fill="white" transform="translate(0 0.5)"/>
</clipPath>
</defs>
</svg>
